<svg width="168" height="49" viewBox="0 0 168 49" fill="none" xmlns="http://www.w3.org/2000/svg">
<rect width="168" height="49" rx="4" fill="#2188FF"/>
<path d="M27.6673 21.0705H30.3598C29.9111 18.2071 27.4323 16.2126 24.2055 16.2126C20.3876 16.2126 17.5242 19.0191 17.5242 23.7203C17.5242 28.336 20.2594 31.1994 24.2839 31.1994C27.8953 31.1994 30.4809 28.8773 30.4809 25.1164V23.3641H24.5617V25.4298H27.9238C27.881 27.5097 26.492 28.8275 24.2981 28.8275C21.8549 28.8275 20.181 26.9969 20.181 23.6918C20.181 20.4081 21.8834 18.5846 24.2412 18.5846C26.0005 18.5846 27.1972 19.5248 27.6673 21.0705ZM38.6977 31.2137C41.903 31.2137 43.9402 28.9557 43.9402 25.5723C43.9402 22.1817 41.903 19.9166 38.6977 19.9166C35.4923 19.9166 33.4551 22.1817 33.4551 25.5723C33.4551 28.9557 35.4923 31.2137 38.6977 31.2137ZM38.7119 29.148C36.9383 29.148 36.0693 27.5667 36.0693 25.5651C36.0693 23.5636 36.9383 21.9609 38.7119 21.9609C40.457 21.9609 41.326 23.5636 41.326 25.5651C41.326 27.5667 40.457 29.148 38.7119 29.148ZM58.5733 20.0591H56.4151V17.4378H53.8365V20.0591H52.2837V22.0535H53.8365V28.1365C53.8223 30.1951 55.3181 31.2066 57.2556 31.1496C57.9893 31.1282 58.495 30.9858 58.7728 30.8932L58.3383 28.8773C58.1958 28.913 57.9038 28.9771 57.5832 28.9771C56.9351 28.9771 56.4151 28.7491 56.4151 27.7092V22.0535H58.5733V20.0591ZM66.3876 31.2137C69.593 31.2137 71.6302 28.9557 71.6302 25.5723C71.6302 22.1817 69.593 19.9166 66.3876 19.9166C63.1823 19.9166 61.1451 22.1817 61.1451 25.5723C61.1451 28.9557 63.1823 31.2137 66.3876 31.2137ZM66.4019 29.148C64.6283 29.148 63.7593 27.5667 63.7593 25.5651C63.7593 23.5636 64.6283 21.9609 66.4019 21.9609C68.147 21.9609 69.016 23.5636 69.016 25.5651C69.016 27.5667 68.147 29.148 66.4019 29.148ZM90.6867 21.0705H93.3792C92.9305 18.2071 90.4517 16.2126 87.2249 16.2126C83.407 16.2126 80.5436 19.0191 80.5436 23.7203C80.5436 28.336 83.2788 31.1994 87.3033 31.1994C90.9147 31.1994 93.5003 28.8773 93.5003 25.1164V23.3641H87.5811V25.4298H90.9432C90.9004 27.5097 89.5114 28.8275 87.3175 28.8275C84.8743 28.8275 83.2004 26.9969 83.2004 23.6918C83.2004 20.4081 84.9028 18.5846 87.2606 18.5846C89.0199 18.5846 90.2166 19.5248 90.6867 21.0705ZM97.6302 31H100.209V20.0591H97.6302V31ZM98.9266 18.5062C99.7458 18.5062 100.415 17.8794 100.415 17.1101C100.415 16.3337 99.7458 15.7069 98.9266 15.7069C98.1003 15.7069 97.4308 16.3337 97.4308 17.1101C97.4308 17.8794 98.1003 18.5062 98.9266 18.5062ZM109.327 20.0591H107.168V17.4378H104.59V20.0591H103.037V22.0535H104.59V28.1365C104.576 30.1951 106.071 31.2066 108.009 31.1496C108.742 31.1282 109.248 30.9858 109.526 30.8932L109.092 28.8773C108.949 28.913 108.657 28.9771 108.336 28.9771C107.688 28.9771 107.168 28.7491 107.168 27.7092V22.0535H109.327V20.0591ZM115.3 24.5893C115.3 23.008 116.283 22.0962 117.664 22.0962C119.018 22.0962 119.816 22.9581 119.816 24.4326V31H122.394V24.0337C122.394 21.3911 120.898 19.9166 118.626 19.9166C116.945 19.9166 115.877 20.6788 115.371 21.9182H115.243V16.4121H112.721V31H115.3V24.5893ZM132.999 26.3985C132.999 28.0653 131.809 28.8916 130.67 28.8916C129.43 28.8916 128.604 28.0155 128.604 26.6265V20.0591H126.025V27.0254C126.025 29.6538 127.521 31.1425 129.672 31.1425C131.311 31.1425 132.465 30.2806 132.963 29.0554H133.077V31H135.577V20.0591H132.999V26.3985ZM139.346 31H141.882V29.2762H142.031C142.437 30.074 143.285 31.1923 145.165 31.1923C147.744 31.1923 149.674 29.148 149.674 25.5438C149.674 21.8968 147.687 19.9166 145.158 19.9166C143.228 19.9166 142.423 21.0776 142.031 21.8683H141.924V16.4121H139.346V31ZM141.874 25.5295C141.874 23.4069 142.786 22.0321 144.446 22.0321C146.163 22.0321 147.046 23.4923 147.046 25.5295C147.046 27.581 146.148 29.0768 144.446 29.0768C142.8 29.0768 141.874 27.6522 141.874 25.5295Z" fill="white"/>
<rect x="0.5" y="0.5" width="167" height="48" rx="3.5" stroke="#D1D5DA" stroke-opacity="0.1"/>
</svg>
